LG_Sit_Stand_Walk03																		
version=1																		
nRows=90																		
nColumns=19																		
inDegrees=yes																		
endheader																		
time	ground_force2_vx	ground_force2_vy	ground_force2_vz	ground_force2_px	ground_force2_py	ground_force2_pz	ground_torque2_x	ground_torque2_y	ground_torque2_z	ground_force1_vx	ground_force1_vy	ground_force1_vz	ground_force1_px	ground_force1_py	ground_force1_pz	ground_torque1_x	ground_torque1_y	ground_torque1_z
4.155	0.438913	140.795715	26.885921	0.201127	0	-0.395734	3.00E-06	0.968666	0	0	0	0	-0.13	0	0.305	0	0	0
4.156	0.363951	141.999573	26.885921	0.20243	0	-0.395734	3.00E-06	0.969821	1.00E-06	0	0	0	-0.13	0	0.305	0	0	0
4.157	0.361063	144.244507	26.415939	0.202895	0	-0.395734	4.00E-06	0.969821	1.00E-06	0	0	0	-0.13	0	0.305	0	0	0
4.158	0.208248	146.134521	26.180824	0.202951	0	-0.395682	4.00E-06	0.964785	2.00E-06	0	0	0	-0.13	0	0.305	0	0	0
4.159	0.12751	146.640198	26.102455	0.202895	0	-0.395682	1.00E-06	0.964785	2.00E-06	0	0	0	-0.13	0	0.305	0	0	0
4.16	0.12751	147.663483	26.102411	0.201274	0	-0.395682	1.00E-06	0.990386	2.00E-06	0	0	0	-0.13	0	0.305	0	0	0
4.161	-0.023863	148.192352	25.39736	0.201274	0	-0.396662	1.00E-06	0.990386	1.00E-06	0	0	0	-0.13	0	0.305	0	0	0
4.162	-0.418169	149.053268	25.083755	0.201	0	-0.396662	2.00E-06	0.894784	1.00E-06	0	0	0	-0.13	0	0.305	0	0	0
4.163	-0.574591	151.62291	24.927053	0.201632	0	-0.396662	2.00E-06	0.894784	1.00E-06	0	0	0	-0.13	0	0.305	0	0	0
4.164	-0.574591	151.635681	24.770554	0.201	0	-0.397758	2.00E-06	0.971365	2.00E-06	0	0	0	-0.13	0	0.305	0	0	0
4.165	-0.416725	152.311066	24.613569	0.202117	0	-0.399038	2.00E-06	1.007145	2.00E-06	0	0	0	-0.13	0	0.305	0	0	0
4.166	-0.416725	153.863953	24.300169	0.200466	0	-0.399038	4.00E-06	1.024709	2.00E-06	0	0	0	-0.13	0	0.305	0	0	0
4.167	-0.807425	155.760162	24.300089	0.200466	0	-0.399038	4.00E-06	1.028663	2.00E-06	0	0	0	-0.13	0	0.305	0	0	0
4.168	-1.040977	156.791611	23.986847	0.200403	0	-0.39886	2.00E-06	1.117651	2.00E-06	0	0	0	-0.13	0	0.305	0	0	0
4.169	-1.119549	158.160522	23.203016	0.20005	0	-0.39871	2.00E-06	1.122793	2.00E-06	0	0	0	-0.13	0	0.305	0	0	0
4.17	-1.350935	158.682007	23.203016	0.20005	0	-0.39871	3.00E-06	1.117651	2.00E-06	0	0	0	-0.13	0	0.305	0	0	0
4.171	-1.588818	160.240341	23.203016	0.199631	0	-0.397422	3.00E-06	1.122793	0	0	0	0	-0.13	0	0.305	0	0	0
4.172	-1.820929	162.461334	22.576454	0.199726	0	-0.397422	3.00E-06	1.096849	0	0	0	0	-0.13	0	0.305	0	0	0
4.173	-2.134497	163.493912	22.106308	0.199726	0	-0.397454	2.00E-06	1.102996	1.00E-06	0	0	0	-0.13	0	0.305	0	0	0
4.174	-2.601603	164.203995	21.871197	0.200596	0	-0.397454	2.00E-06	1.084206	2.00E-06	0	0	0	-0.13	0	0.305	0	0	0
4.175	-2.601603	168.151505	21.636206	0.200596	0	-0.397454	2.00E-06	1.067964	2.00E-06	0	0	0	-0.13	0	0.305	0	0	0
4.176	-2.679455	168.485535	21.322439	0.200596	0	-0.396798	4.00E-06	1.067964	2.00E-06	0	0	0	-0.13	0	0.305	0	0	0
4.177	-2.758028	172.281006	21.166183	0.200652	0	-0.39811	4.00E-06	1.167595	2.00E-06	0	0	0	-0.13	0	0.305	0	0	0
4.178	-2.993023	172.282196	20.93091	0.201105	0	-0.39811	4.00E-06	1.167595	1.00E-06	0	0	0	-0.13	0	0.305	0	0	0
4.179	-3.304426	172.445343	20.069113	0.201105	0	-0.39811	2.00E-06	1.164807	1.00E-06	0	0	0	-0.13	0	0.305	0	0	0
4.18	-3.536537	175.71817	19.677097	0.201105	0	-0.398107	2.00E-06	1.164807	2.00E-06	0	0	0	-0.13	0	0.305	0	0	0
4.181	-3.77009	176.925873	19.598928	0.200969	0	-0.398	2.00E-06	1.118992	2.00E-06	0	0	0	-0.13	0	0.305	0	0	0
4.182	-3.77009	180.19873	19.520517	0.200228	0	-0.397534	2.00E-06	1.183914	3.00E-06	0	0	0	-0.13	0	0.305	0	0	0
4.183	-4.788645	183.62973	18.501896	0.199795	0	-0.397534	3.00E-06	1.086265	2.00E-06	0	0	0	-0.13	0	0.305	0	0	0
4.184	-4.788645	183.802139	18.423689	0.199795	0	-0.397534	0.00E+00	1.08468	2.00E-06	0	0	0	-0.13	0	0.305	0	0	0
4.185	-4.785759	188.297729	18.266665	0.201209	0	-0.397437	1.00E-06	1.08468	2.00E-06	0	0	0	-0.13	0	0.305	0	0	0
4.186	-4.785759	191.208389	17.404829	0.201209	0	-0.396448	0.00E+00	1.241462	0	0	0	0	-0.13	0	0.305	0	0	0
4.187	-5.802153	192.414902	17.326536	0.201209	0	-0.396449	1.00E-06	1.305595	0	0	0	0	-0.13	0	0.305	0	0	0
4.188	-6.033541	196.890076	16.621241	0.201188	0	-0.396449	2.00E-06	1.305595	0	0	0	0	-0.13	0	0.305	0	0	0
4.189	-6.34783	198.781616	16.621241	0.201188	0	-0.397093	2.00E-06	1.333242	2.00E-06	0	0	0	-0.13	0	0.305	0	0	0
4.19	-7.128504	202.043686	16.386208	0.201188	0	-0.397093	2.00E-06	1.28437	2.00E-06	0	0	0	-0.13	0	0.305	0	0	0
4.191	-7.283485	206.702454	15.994434	0.201465	0	-0.39704	1.00E-06	1.28437	2.00E-06	0	0	0	-0.13	0	0.305	0	0	0
4.192	-7.749146	208.250702	15.524252	0.201465	0	-0.39704	2.00E-06	1.28437	2.00E-06	0	0	0	-0.13	0	0.305	0	0	0
4.193	-8.064157	210.142288	14.427423	0.201644	0	-0.39704	3.00E-06	1.327452	2.00E-06	0	0	0	-0.13	0	0.305	0	0	0
4.194	-8.220581	214.783691	14.427382	0.201264	0	-0.397559	3.00E-06	1.34267	2.00E-06	0	0	0	-0.13	0	0.305	0	0	0
4.195	-8.765539	216.142181	13.722048	0.201401	0	-0.39719	3.00E-06	1.327452	2.00E-06	0	0	0	-0.13	0	0.305	0	0	0
4.196	-9.386904	219.267303	12.546846	0.20028	0	-0.398961	3.00E-06	1.350814	2.00E-06	0	0	0	-0.13	0	0.305	0	0	0
4.197	-9.387624	224.062592	11.76322	0.20028	0	-0.398945	4.00E-06	1.350814	2.00E-06	0	0	0	-0.13	0	0.305	0	0	0
4.198	-9.387624	226.121582	11.76322	0.20028	0	-0.398945	0.00E+00	1.350814	1.00E-06	0	0	0	-0.13	0	0.305	0	0	0
4.199	-9.699028	229.925568	11.606636	0.200168	0	-0.39812	4.00E-06	1.356902	2.00E-06	0	0	0	-0.13	0	0.305	0	0	0
4.2	-9.699028	233.014053	10.117592	0.199976	0	-0.397853	7.00E-06	1.439091	2.00E-06	0	0	0	-0.13	0	0.305	0	0	0
4.201	-10.012597	235.420181	9.334167	0.199976	0	-0.397853	8.00E-06	1.439091	3.00E-06	0	0	0	-0.13	0	0.305	0	0	0
4.202	-10.087563	238.180023	8.785734	0.20039	0	-0.397853	9.00E-06	1.434746	2.00E-06	0	0	0	-0.13	0	0.305	0	0	0
4.203	-10.555388	243.330917	7.61025	0.200623	0	-0.398608	8.00E-06	1.427164	3.00E-06	0	0	0	-0.13	0	0.305	0	0	0
4.204	-10.633962	243.857422	7.29681	0.20039	0	-0.398608	6.00E-06	1.434746	0.00E+00	0	0	0	-0.13	0	0.305	0	0	0
4.205	-10.636848	248.159027	6.513384	0.200034	0	-0.398608	5.00E-06	1.519471	1.00E-06	0	0	0	-0.13	0	0.305	0	0	0
4.206	-11.099625	250.207581	5.886539	0.200034	0	-0.397235	6.00E-06	1.519471	1.00E-06	0	0	0	-0.13	0	0.305	0	0	0
4.207	-11.259657	253.147186	5.729797	0.199758	0	-0.397661	5.00E-06	1.464515	2.00E-06	0	0	0	-0.13	0	0.305	0	0	0
4.208	-11.648911	255.210785	4.946291	0.19992	0	-0.397491	6.00E-06	1.464515	2.00E-06	0	0	0	-0.13	0	0.305	0	0	0
4.209	-11.8803	259.506561	4.946291	0.1999	0	-0.397661	5.00E-06	1.464515	2.00E-06	0	0	0	-0.13	0	0.305	0	0	0
4.21	-11.957428	260.708832	3.535898	0.19992	0	-0.398173	5.00E-06	1.395586	2.00E-06	0	0	0	-0.13	0	0.305	0	0	0
4.211	-11.957428	266.395142	2.909054	0.1999	0	-0.398173	5.00E-06	1.3689	3.00E-06	0	0	0	-0.13	0	0.305	0	0	0
4.212	-11.95815	268.626953	2.360739	0.199974	0	-0.398173	6.00E-06	1.3689	3.00E-06	0	0	0	-0.13	0	0.305	0	0	0
4.213	-12.110965	269.830017	1.42041	0.199974	0	-0.397866	7.00E-06	1.3689	4.00E-06	0	0	0	-0.13	0	0.305	0	0	0
4.214	-12.110965	276.03009	0.950106	0.199974	0	-0.398453	7.00E-06	1.393267	4.00E-06	0	0	0	-0.13	0	0.305	0	0	0
4.215	-12.270997	276.540375	0.636824	0.199932	0	-0.397866	7.00E-06	1.467593	4.00E-06	0	0	0	-0.13	0	0.305	0	0	0
4.216	-12.270997	280.498688	-0.303507	0.199932	0	-0.397991	5.00E-06	1.467593	1.00E-06	0	0	0	-0.13	0	0.305	0	0	0
4.217	-12.267389	285.832825	-0.8519	0.200021	0	-0.397991	7.00E-06	1.327885	1.00E-06	0	0	0	-0.13	0	0.305	0	0	0
4.218	-12.188096	286.869263	-1.713858	0.200021	0	-0.397991	5.00E-06	1.327885	1.00E-06	0	0	0	-0.13	0	0.305	0	0	0
4.219	-12.188096	290.483856	-2.02726	0.199577	0	-0.397677	5.00E-06	1.347207	1.00E-06	0	0	0	-0.13	0	0.305	0	0	0
4.22	-12.5824	295.640961	-2.497444	0.199485	0	-0.397677	5.00E-06	1.51814	5.00E-06	0	0	0	-0.13	0	0.305	0	0	0
4.221	-12.658087	297.004456	-3.751177	0.199485	0	-0.397379	7.00E-06	1.548435	2.00E-06	0	0	0	-0.13	0	0.305	0	0	0
4.222	-12.658087	302.869385	-3.986368	0.19962	0	-0.397379	7.00E-06	1.555472	5.00E-06	0	0	0	-0.13	0	0.305	0	0	0
4.223	-12.73738	305.794678	-4.221319	0.19962	0	-0.397267	1.00E-06	1.548435	2.00E-06	0	0	0	-0.13	0	0.305	0	0	0
4.224	-12.81451	308.370178	-5.161486	0.199554	0	-0.396703	1.00E-06	1.522563	5.00E-06	0	0	0	-0.13	0	0.305	0	0	0
4.225	-13.359468	313.362183	-5.631672	0.199342	0	-0.396703	7.00E-06	1.522563	2.00E-06	0	0	0	-0.13	0	0.305	0	0	0
4.226	-13.126635	315.774841	-6.258636	0.199342	0	-0.396488	7.00E-06	1.522563	2.00E-06	0	0	0	-0.13	0	0.305	0	0	0
4.227	-13.126635	320.069489	-7.355307	0.199342	0	-0.396711	8.00E-06	1.499128	2.00E-06	0	0	0	-0.13	0	0.305	0	0	0
4.228	-13.126635	323.000183	-8.295593	0.199831	0	-0.396711	1.10E-05	1.481434	0.00E+00	0	0	0	-0.13	0	0.305	0	0	0
4.229	-12.813788	326.263397	-8.844229	0.199831	0	-0.397385	1.10E-05	1.479091	1.00E-06	0	0	0	-0.13	0	0.305	0	0	0
4.23	-12.96949	329.359192	-9.314295	0.199761	0	-0.397385	1.40E-05	1.479091	1.00E-06	0	0	0	-0.13	0	0.305	0	0	0
4.231	-12.96949	333.299713	-10.332832	0.199286	0	-0.397385	8.00E-06	1.50407	4.00E-06	0	0	0	-0.13	0	0.305	0	0	0
4.232	-13.045898	333.838989	-11.116297	0.199761	0	-0.398108	1.40E-05	1.53153	4.00E-06	0	0	0	-0.13	0	0.305	0	0	0
4.233	-13.749443	336.5849	-11.899965	0.199845	0	-0.398108	8.00E-06	1.540218	4.00E-06	0	0	0	-0.13	0	0.305	0	0	0
4.234	-13.749443	342.612976	-12.213329	0.199845	0	-0.39762	1.30E-05	1.564201	4.00E-06	0	0	0	-0.13	0	0.305	0	0	0
4.235	-13.749443	345.869232	-13.153614	0.199413	0	-0.397322	1.30E-05	1.579135	5.00E-06	0	0	0	-0.13	0	0.305	0	0	0
4.236	-13.905145	346.3927	-14.172073	0.199413	0	-0.396718	1.30E-05	1.610669	5.00E-06	0	0	0	-0.13	0	0.305	0	0	0
4.237	-13.905145	351.391266	-14.485676	0.199539	0	-0.396718	5.00E-06	1.579135	5.00E-06	0	0	0	-0.13	0	0.305	0	0	0
4.238	-14.138698	353.101929	-15.190735	0.199539	0	-0.396634	5.00E-06	1.610669	4.00E-06	0	0	0	-0.13	0	0.305	0	0	0
4.239	-14.296564	355.339111	-15.895948	0.199748	0	-0.397645	7.00E-06	1.590531	2.00E-06	0	0	0	-0.13	0	0.305	0	0	0
4.24	-14.919372	360.839508	-16.757828	0.199206	0	-0.396942	7.00E-06	1.594546	2.00E-06	0	0	0	-0.13	0	0.305	0	0	0
4.241	-14.920094	361.365234	-16.836035	0.199391	0	-0.397003	5.00E-06	1.594546	5.00E-06	0	0	0	-0.13	0	0.305	0	0	0
4.242	-15.234385	364.462952	-17.776405	0.199318	0	-0.397003	5.00E-06	1.692227	6.00E-06	0	0	0	-0.13	0	0.305	0	0	0
4.243	-15.467938	367.895081	-18.55983	0.199318	0	-0.398396	1.40E-05	1.692227	6.00E-06	0	0	0	-0.13	0	0.305	0	0	0
4.244	-15.777177	368.406921	-19.500036	0.199318	0	-0.398396	1.40E-05	1.564426	2.00E-06	0	0	0	-0.13	0	0.305	0	0	0
